<?xml version="1.0" encoding="UTF-8"?>
<svg width="805px" height="105px" viewBox="0 0 805 105" version="1.1" xmlns="http://www.w3.org/2000/svg" xmlns:xlink="http://www.w3.org/1999/xlink">
    <g id="Page-1" stroke="none" stroke-width="1" fill="none" fill-rule="evenodd">
        <g id="Logo_JURrecords_Typo" fill="#1A1918">
            <path d="M41.744,75.617 C41.744,79.191 41.361,82.49 40.595,85.51 C39.829,88.533 38.636,91.149 37.021,93.361 C35.403,95.575 33.318,97.298 30.766,98.531 C28.212,99.766 25.105,100.382 21.446,100.382 C17.105,100.382 13.276,99.213 9.957,96.872 C6.638,94.532 4.127,91.447 2.425,87.616 L0,88.765 C1.447,92.68 4.041,96.022 7.787,98.786 C11.531,101.55 16.085,102.936 21.446,102.936 C29.105,102.936 34.871,100.531 38.744,95.722 C42.616,90.915 44.553,84.341 44.553,75.999 L44.553,10.255 L41.744,10.255 L41.744,75.617" id="Fill-1"></path>
            <path d="M135.956,65.915 C135.956,69.66 135.573,73.554 134.807,77.595 C134.041,81.638 132.509,85.383 130.211,88.829 C127.913,92.276 124.701,95.107 120.573,97.318 C116.444,99.532 111.018,100.638 104.297,100.638 C97.403,100.638 91.892,99.488 87.765,97.19 C83.636,94.892 80.445,92.021 78.19,88.574 C75.935,85.127 74.444,81.382 73.722,77.339 C72.997,73.298 72.637,69.489 72.637,65.915 L72.637,10.255 L69.828,10.255 L69.828,66.424 C69.828,71.531 70.424,76.318 71.616,80.787 C72.807,85.254 74.764,89.149 77.488,92.468 C80.21,95.787 83.764,98.404 88.148,100.318 C92.53,102.233 97.913,103.191 104.297,103.191 C110.68,103.191 116.06,102.233 120.445,100.318 C124.828,98.404 128.379,95.787 131.104,92.468 C133.828,89.149 135.784,85.254 136.977,80.787 C138.168,76.318 138.765,71.531 138.765,66.424 L138.765,10.255 L135.956,10.255 L135.956,65.915" id="Fill-2"></path>
            <path d="M167.36,52.638 L167.36,12.681 L188.04,12.681 C191.444,12.681 194.785,12.98 198.061,13.574 C201.337,14.17 204.231,15.213 206.742,16.701 C209.251,18.192 211.274,20.234 212.806,22.83 C214.337,25.426 215.104,28.682 215.104,32.596 C215.104,38.979 212.912,43.916 208.529,47.404 C204.145,50.894 197.784,52.638 189.445,52.638 L167.36,52.638 Z M200.743,53.787 C203.847,53.021 206.679,51.767 209.231,50.02 C211.785,48.277 213.869,45.999 215.487,43.191 C217.103,40.382 217.913,36.852 217.913,32.596 C217.913,28 217.061,24.256 215.36,21.362 C213.656,18.47 211.466,16.191 208.785,14.531 C206.105,12.872 203.06,11.745 199.657,11.149 C196.252,10.554 192.892,10.255 189.573,10.255 L164.551,10.255 L164.551,100.638 L167.36,100.638 L167.36,55.063 L188.551,55.063 L215.87,100.638 L219.062,100.638 L191.615,54.936 C194.592,54.936 197.635,54.552 200.743,53.787 L200.743,53.787 Z" id="Fill-3"></path>
            <path d="M254.04,50.468 L254.04,18.17 L270.38,18.17 C273.782,18.17 276.891,18.47 279.699,19.064 C282.507,19.66 284.889,20.595 286.847,21.872 C288.805,23.149 290.335,24.808 291.443,26.85 C292.549,28.893 293.103,31.405 293.103,34.382 C293.103,39.744 291.103,43.765 287.103,46.445 C283.101,49.128 277.4,50.468 269.996,50.468 L254.04,50.468 Z M288.379,55.319 C291.188,54.128 293.614,52.532 295.656,50.531 C297.699,48.533 299.314,46.17 300.506,43.446 C301.698,40.724 302.295,37.701 302.295,34.382 C302.295,29.959 301.528,26.212 299.997,23.149 C298.464,20.086 296.315,17.596 293.549,15.68 C290.782,13.766 287.506,12.383 283.721,11.532 C279.932,10.682 275.825,10.255 271.401,10.255 L244.848,10.255 L244.848,100.638 L254.04,100.638 L254.04,58.383 L269.359,58.383 L294.379,100.638 L305.614,100.638 L279.188,57.616 C282.507,57.277 285.57,56.511 288.379,55.319 L288.379,55.319 Z" id="Fill-4"></path>
            <polyline id="Fill-5" points="333.507 57.616 377.293 57.616 377.293 49.446 333.507 49.446 333.507 18.425 380.357 18.425 380.357 10.255 324.315 10.255 324.315 100.638 381.89 100.638 381.89 92.468 333.507 92.468 333.507 57.616"></polyline>
            <path d="M453.077,91.574 C448.397,93.702 443.461,94.766 438.271,94.766 C432.482,94.766 427.271,93.706 422.634,91.583 C417.992,89.463 414.058,86.601 410.825,82.995 C407.589,79.39 405.1,75.213 403.356,70.462 C401.61,65.711 400.739,60.707 400.739,55.445 C400.739,50.188 401.589,45.183 403.293,40.433 C404.994,35.681 407.462,31.505 410.697,27.897 C413.93,24.294 417.865,21.432 422.506,19.31 C427.142,17.189 432.399,16.127 438.271,16.127 C441.163,16.127 443.865,16.468 446.378,17.148 C448.889,17.831 451.207,18.724 453.336,19.83 C455.462,20.937 457.312,22.213 458.887,23.659 C460.461,25.106 461.716,26.554 462.651,28 L470.315,22.383 C468.781,20.171 466.865,18.187 464.567,16.429 C462.27,14.673 459.718,13.168 456.909,11.913 C454.1,10.66 451.099,9.687 447.908,8.995 C444.717,8.304 441.463,7.957 438.143,7.957 C431.417,7.957 425.185,9.15 419.442,11.532 C413.696,13.915 408.718,17.212 404.505,21.425 C400.293,25.638 396.992,30.639 394.612,36.425 C392.229,42.213 391.037,48.552 391.037,55.445 C391.037,62.339 392.206,68.681 394.547,74.468 C396.888,80.255 400.143,85.254 404.314,89.467 C408.483,93.68 413.461,96.98 419.252,99.361 C425.035,101.743 431.335,102.936 438.143,102.936 C442.228,102.936 445.996,102.481 449.441,101.574 C452.887,100.666 456.036,99.435 458.887,97.879 C461.738,96.323 464.247,94.52 466.422,92.473 C468.59,90.427 470.439,88.255 471.973,85.958 L464.826,81.361 C461.675,86.042 457.761,89.448 453.077,91.574" id="Fill-6"></path>
            <path d="M596.968,50.468 L596.968,18.17 L613.307,18.17 C616.71,18.17 619.818,18.47 622.627,19.064 C625.435,19.66 627.816,20.595 629.776,21.872 C631.733,23.149 633.265,24.808 634.372,26.85 C635.477,28.893 636.031,31.405 636.031,34.382 C636.031,39.744 634.031,43.765 630.031,46.445 C626.029,49.128 620.33,50.468 612.926,50.468 L596.968,50.468 Z M631.308,55.319 C634.116,54.128 636.541,52.532 638.583,50.531 C640.628,48.533 642.243,46.17 643.435,43.446 C644.625,40.724 645.222,37.701 645.222,34.382 C645.222,29.959 644.457,26.212 642.925,23.149 C641.393,20.086 639.242,17.596 636.479,15.68 C633.711,13.766 630.435,12.383 626.648,11.532 C622.862,10.682 618.753,10.255 614.329,10.255 L587.775,10.255 L587.775,100.638 L596.968,100.638 L596.968,58.383 L612.288,58.383 L637.308,100.638 L648.542,100.638 L622.117,57.616 C625.435,57.277 628.5,56.511 631.308,55.319 L631.308,55.319 Z" id="Fill-7"></path>
            <path d="M728.544,69.106 C726.881,73.532 724.392,77.468 721.076,80.914 C717.754,84.362 713.563,87.15 708.5,89.277 C703.435,91.404 697.499,92.468 690.691,92.468 L672.436,92.468 L672.436,18.425 L690.691,18.425 C697.499,18.425 703.435,19.491 708.5,21.617 C713.563,23.746 717.754,26.532 721.076,29.978 C724.392,33.426 726.881,37.363 728.544,41.786 C730.201,46.214 731.031,50.767 731.031,55.445 C731.031,60.128 730.201,64.681 728.544,69.106 Z M725.476,21.553 C720.927,17.767 715.817,14.937 710.16,13.063 C704.499,11.192 698.861,10.255 693.245,10.255 L663.243,10.255 L663.243,100.638 L693.245,100.638 C698.861,100.638 704.499,99.702 710.16,97.83 C715.817,95.958 720.927,93.127 725.476,89.339 C730.032,85.554 733.712,80.851 736.522,75.233 C739.331,69.616 740.732,63.022 740.732,55.445 C740.732,47.959 739.331,41.383 736.522,35.724 C733.712,30.064 730.032,25.341 725.476,21.553 L725.476,21.553 Z" id="Fill-8"></path>
            <path d="M801.672,65.722 C800.061,62.786 797.981,60.36 795.436,58.445 C792.888,56.531 790.024,54.979 786.842,53.787 C783.659,52.597 780.495,51.489 777.358,50.468 C774.811,49.617 772.371,48.765 770.036,47.915 C767.704,47.065 765.622,45.979 763.798,44.659 C761.974,43.341 760.507,41.745 759.405,39.871 C758.306,38.001 757.752,35.618 757.752,32.723 C757.752,29.831 758.326,27.32 759.477,25.191 C760.624,23.064 762.136,21.297 764.007,19.893 C765.881,18.489 767.966,17.447 770.264,16.766 C772.563,16.086 774.814,15.745 777.03,15.745 C781.368,15.745 785.07,16.575 788.133,18.234 C791.201,19.893 793.711,22.086 795.668,24.808 L802.944,18.936 C800.729,15.958 797.455,13.383 793.112,11.213 C788.774,9.043 783.537,7.957 777.413,7.957 C774.092,7.957 770.73,8.426 767.327,9.361 C763.923,10.298 760.814,11.787 758.006,13.83 C755.2,15.873 752.919,18.47 751.179,21.617 C749.433,24.767 748.561,28.511 748.561,32.851 C748.561,36.936 749.263,40.382 750.667,43.191 C752.072,45.999 753.921,48.361 756.219,50.276 C758.517,52.19 761.113,53.745 764.007,54.936 C766.898,56.128 769.836,57.191 772.817,58.127 C775.709,59.064 778.476,60 781.115,60.936 C783.749,61.873 786.093,63.042 788.133,64.447 C790.178,65.85 791.815,67.596 793.05,69.68 C794.284,71.767 794.903,74.384 794.903,77.531 C794.903,80.426 794.284,82.957 793.05,85.127 C791.815,87.297 790.241,89.129 788.324,90.617 C786.413,92.105 784.26,93.214 781.88,93.936 C779.498,94.659 777.155,95.02 774.861,95.02 C770.09,95.02 765.942,93.936 762.411,91.766 C758.878,89.595 756.136,86.894 754.179,83.659 L746.264,89.531 C747.878,91.746 749.753,93.702 751.882,95.403 C754.008,97.107 756.307,98.511 758.774,99.616 C761.243,100.721 763.836,101.55 766.563,102.105 C769.283,102.658 772.005,102.936 774.732,102.936 C778.307,102.936 781.858,102.425 785.392,101.403 C788.922,100.382 792.062,98.808 794.808,96.681 C797.554,94.554 799.789,91.85 801.51,88.574 C803.23,85.298 804.091,81.405 804.091,76.893 C804.091,72.383 803.285,68.659 801.672,65.722" id="Fill-9"></path>
            <path d="M495.601,17.979 C495.604,17.968 495.61,17.961 495.611,17.947 L495.629,17.941 L495.623,17.959 C495.61,17.96 495.611,17.976 495.601,17.979 Z M522.238,44.974 C522.044,44.885 521.86,44.781 521.689,44.653 C521.316,44.374 521.05,44.019 520.905,43.572 C520.715,42.975 520.613,42.363 520.584,41.738 C520.535,40.611 520.688,39.509 520.993,38.425 C521.353,37.147 521.891,35.955 522.633,34.854 C523.021,34.278 523.467,33.746 523.979,33.274 C524.251,33.024 524.539,32.798 524.852,32.6 C525.078,32.456 525.315,32.33 525.563,32.224 C526.351,31.887 527.151,31.849 527.969,32.103 C528.474,32.258 528.941,32.488 529.385,32.767 C530.086,33.206 530.714,33.732 531.27,34.342 C532.196,35.359 533.016,36.459 533.736,37.631 C533.869,37.848 533.982,38.078 534.095,38.306 C534.239,38.593 534.265,38.898 534.212,39.215 C534.152,39.569 534.028,39.898 533.856,40.209 C533.672,40.546 533.444,40.851 533.192,41.14 C532.942,41.429 532.672,41.701 532.384,41.953 C531.746,42.512 531.101,43.065 530.425,43.58 C530.2,43.751 529.969,43.913 529.737,44.076 C529.176,44.47 528.56,44.753 527.904,44.948 C526.896,45.25 525.865,45.415 524.599,45.42 C524.301,45.419 523.792,45.4 523.289,45.3 C522.928,45.228 522.575,45.129 522.238,44.974 Z M524.175,48.02 C524.474,47.679 524.775,47.344 525.079,47.007 C525.175,46.902 525.277,46.804 525.371,46.699 C525.48,46.576 525.612,46.517 525.777,46.5 C526.652,46.406 527.51,46.228 528.354,45.982 C529.006,45.79 529.641,45.549 530.252,45.252 C532.344,44.236 533.881,42.675 534.869,40.573 C535.043,40.201 535.195,39.82 535.335,39.435 C535.358,39.368 535.381,39.3 535.4,39.232 C535.461,39.051 535.553,38.902 535.743,38.826 C535.951,38.744 536.158,38.73 536.36,38.822 C536.488,38.881 536.61,38.956 536.723,39.042 C536.865,39.154 536.994,39.288 537.134,39.407 C537.273,39.527 537.412,39.648 537.563,39.754 C537.716,39.86 537.886,39.929 538.074,39.944 C538.324,39.963 538.553,39.894 538.755,39.751 C538.893,39.652 539.014,39.532 539.14,39.417 C539.263,39.302 539.38,39.177 539.504,39.063 C539.653,38.926 539.831,38.837 540.027,38.797 C540.294,38.744 540.532,38.798 540.736,38.984 C540.961,39.188 541.121,39.436 541.232,39.716 C541.385,40.102 541.455,40.505 541.475,40.917 C541.508,41.601 541.42,42.272 541.266,42.937 C541.146,43.448 540.984,43.946 540.76,44.421 C540.705,44.536 540.647,44.648 540.554,44.738 C540.445,44.841 540.319,44.903 540.171,44.893 C540.029,44.883 539.89,44.861 539.752,44.831 C539.449,44.762 539.148,44.683 538.844,44.613 C538.078,44.436 537.302,44.424 536.523,44.489 C536.242,44.512 535.959,44.541 535.681,44.588 C534.762,44.749 533.92,45.106 533.139,45.612 C532.409,46.086 531.775,46.667 531.21,47.327 C530.609,48.028 530.104,48.795 529.667,49.607 C529.007,50.835 528.522,52.131 528.155,53.473 C527.886,54.456 527.695,55.457 527.559,56.466 C527.366,57.887 527.317,59.315 527.384,60.745 C527.488,63.071 527.96,65.315 528.891,67.457 C529.53,68.932 530.363,70.292 531.35,71.56 C532.265,72.735 533.291,73.809 534.381,74.822 C535.26,75.643 536.177,76.423 537.104,77.189 C537.345,77.388 537.586,77.585 537.825,77.784 C537.879,77.828 537.938,77.872 537.956,77.966 C537.902,78.03 537.838,78.107 537.772,78.176 C537.114,78.863 536.39,79.474 535.623,80.033 C534.081,81.154 532.412,82.047 530.646,82.757 C529.145,83.361 527.599,83.81 526.007,84.097 C525.186,84.245 524.356,84.346 523.522,84.396 C522.928,84.43 522.334,84.458 521.739,84.433 C520.807,84.395 519.879,84.305 518.957,84.142 C517.108,83.813 515.328,83.268 513.61,82.514 C512.599,82.069 511.626,81.55 510.705,80.938 C510.067,80.513 509.461,80.048 508.908,79.517 C508.685,79.302 508.469,79.076 508.262,78.845 C507.478,77.977 506.959,76.967 506.667,75.836 C506.361,74.647 506.239,73.441 506.328,72.218 C506.402,71.224 506.624,70.259 507.021,69.343 C507.939,67.229 509.496,65.792 511.661,65.014 C512.289,64.789 512.938,64.652 513.601,64.566 C514.293,64.477 514.984,64.472 515.677,64.511 C516.455,64.555 517.222,64.682 517.98,64.868 C518.145,64.907 518.304,64.973 518.459,65.04 C520.363,65.871 521.72,67.247 522.542,69.152 C522.888,69.949 523.106,70.782 523.23,71.64 C523.325,72.314 523.377,72.991 523.365,73.671 C523.355,74.237 523.32,74.802 523.247,75.364 C523.228,75.533 523.211,75.701 523.201,75.872 C523.199,75.907 523.217,75.943 523.229,75.979 C523.219,75.977 523.209,75.975 523.201,75.973 C523.222,75.955 523.23,75.962 523.231,75.991 C523.231,75.991 523.231,75.991 523.231,75.992 L523.231,75.991 C523.231,75.992 523.229,75.98 523.229,75.98 C523.313,75.949 523.36,75.876 523.413,75.811 C523.686,75.484 523.926,75.135 524.148,74.772 C524.595,74.032 524.965,73.253 525.279,72.447 C525.72,71.324 526.047,70.169 526.255,68.982 C526.455,67.848 526.508,66.704 526.453,65.555 C526.385,64.085 526.068,62.669 525.479,61.319 C524.838,59.845 523.916,58.569 522.749,57.468 C521.72,56.499 520.563,55.717 519.308,55.078 C518.525,54.679 517.713,54.347 516.884,54.062 C516.818,54.039 516.752,54.009 516.692,53.976 C516.68,53.968 516.673,53.916 516.683,53.907 C516.735,53.86 516.789,53.812 516.851,53.78 C517.56,53.425 518.23,53.002 518.916,52.607 C519.716,52.147 520.464,51.611 521.152,50.997 C521.648,50.553 522.147,50.113 522.633,49.659 C523.179,49.145 523.678,48.582 524.175,48.02 Z M487.854,74.446 C487.904,74.981 487.966,75.515 488.055,76.045 C488.306,77.544 488.708,78.998 489.343,80.383 C489.546,80.82 489.772,81.243 490.029,81.65 C490.068,81.71 490.104,81.772 490.139,81.833 C490.174,81.897 490.156,81.962 490.137,82.028 C490.138,82.031 490.141,82.033 490.141,82.036 C490.148,82.033 490.156,82.031 490.165,82.029 C490.146,82.006 490.139,82.01 490.145,82.044 C490.145,82.041 490.142,82.039 490.141,82.036 C490.139,82.037 490.137,82.037 490.135,82.038 C490.136,82.034 490.136,82.031 490.137,82.028 C490.117,81.933 490.045,81.871 489.985,81.801 C489.295,80.977 488.632,80.129 488.002,79.257 C484.644,74.603 482.242,69.502 480.818,63.94 C480.537,62.843 480.296,61.737 480.101,60.622 C479.987,59.968 479.896,59.309 479.812,58.65 C479.726,58.004 479.654,57.357 479.59,56.71 C479.544,56.274 479.51,55.835 479.492,55.398 C479.449,54.394 479.393,53.39 479.409,52.384 C479.425,51.379 479.456,50.376 479.535,49.373 C479.575,48.894 479.607,48.413 479.656,47.935 C479.707,47.428 479.767,46.923 479.838,46.418 C479.953,45.577 480.091,44.738 480.255,43.906 C480.592,42.198 481.02,40.512 481.551,38.854 C483.146,33.875 485.531,29.305 488.702,25.149 C490.606,22.654 492.74,20.374 495.122,18.327 C495.219,18.245 495.315,18.161 495.416,18.083 C495.443,18.062 495.484,18.056 495.521,18.045 C495.521,18.041 495.522,18.038 495.523,18.034 C495.535,18.035 495.539,18.028 495.549,18.026 C495.546,18.035 495.532,18.03 495.531,18.042 C495.527,18.043 495.524,18.044 495.521,18.045 C495.515,18.082 495.515,18.123 495.497,18.152 C495.125,18.72 494.748,19.285 494.379,19.854 C494.226,20.091 494.081,20.335 493.945,20.583 C493.471,21.452 493.002,22.323 492.532,23.196 C492.434,23.382 492.333,23.571 492.241,23.762 C491.95,24.373 491.66,24.988 491.365,25.599 C490.402,27.611 489.706,29.712 489.234,31.892 C489.087,32.583 488.95,33.276 488.844,33.975 C488.75,34.59 488.684,35.209 488.629,35.829 C488.551,36.72 488.536,37.61 488.572,38.501 C488.666,41.003 489.199,43.403 490.296,45.667 C491.354,47.852 492.838,49.704 494.698,51.259 C496.275,52.575 498.027,53.597 499.92,54.386 C500.168,54.49 500.422,54.583 500.67,54.683 C500.732,54.709 500.803,54.722 500.846,54.783 C500.833,54.808 500.825,54.845 500.806,54.853 C500.69,54.905 500.573,54.951 500.454,54.996 C498.965,55.553 497.54,56.238 496.203,57.096 C494.521,58.175 493.039,59.474 491.79,61.037 C490.459,62.702 489.483,64.558 488.825,66.58 C488.467,67.671 488.214,68.787 488.041,69.921 C487.943,70.565 487.869,71.211 487.826,71.86 C487.771,72.721 487.773,73.584 487.854,74.446 Z M545.734,12.568 C545.732,12.569 545.731,12.569 545.73,12.569 C545.732,12.572 545.73,12.565 545.732,12.567 C545.733,12.568 545.733,12.568 545.734,12.568 Z M546.067,12.755 C548.313,13.97 550.438,15.367 552.448,16.942 C554.29,18.385 556.013,19.957 557.606,21.671 C558.916,23.084 560.109,24.594 561.226,26.165 C561.258,26.21 561.284,26.26 561.312,26.31 C561.314,26.316 561.305,26.334 561.296,26.339 C561.285,26.346 561.27,26.351 561.259,26.347 C561.232,26.336 561.207,26.325 561.186,26.309 C560.303,25.629 559.317,25.139 558.28,24.749 C557.205,24.342 556.097,24.061 554.961,23.881 C553.795,23.696 552.625,23.652 551.449,23.737 C550.657,23.795 549.882,23.958 549.117,24.173 C548.568,24.328 548.06,24.571 547.586,24.888 C547.554,24.909 547.51,24.911 547.472,24.916 C547.465,24.917 547.447,24.896 547.448,24.886 C547.45,24.858 547.455,24.829 547.466,24.804 C547.719,24.266 547.906,23.701 548.107,23.143 C548.289,22.648 548.387,22.134 548.425,21.61 C548.478,20.89 548.485,20.168 548.425,19.447 C548.314,18.171 548.028,16.935 547.551,15.744 C547.298,15.113 546.999,14.504 546.643,13.924 C546.383,13.502 546.108,13.089 545.777,12.719 C545.739,12.676 545.741,12.628 545.757,12.58 C545.782,12.594 545.808,12.606 545.833,12.619 C545.907,12.671 545.988,12.712 546.067,12.755 Z M565.975,34.545 C565.971,34.521 565.981,34.495 565.985,34.469 C566.054,34.503 566.086,34.565 566.113,34.631 C566.311,35.116 566.517,35.597 566.705,36.085 C567.047,36.969 567.369,37.858 567.659,38.761 C568.144,40.27 568.553,41.798 568.871,43.352 C569.059,44.265 569.219,45.184 569.354,46.108 C569.477,46.949 569.57,47.792 569.649,48.636 C569.703,49.186 569.729,49.737 569.762,50.288 C569.787,50.726 569.808,51.164 569.82,51.602 C569.842,52.45 569.84,53.299 569.8,54.147 C569.782,54.486 569.778,54.826 569.758,55.165 C569.727,55.673 569.688,56.181 569.65,56.689 C569.649,56.696 569.636,56.709 569.629,56.708 C569.616,56.707 569.593,56.701 569.592,56.692 C569.568,56.597 569.534,56.502 569.527,56.405 C569.49,55.839 569.417,55.278 569.337,54.718 C569.153,53.428 568.875,52.16 568.406,50.938 C568.113,50.169 567.746,49.437 567.272,48.762 C566.532,47.709 565.592,46.894 564.426,46.344 C563.822,46.06 563.19,45.857 562.535,45.729 C562.202,45.665 561.867,45.618 561.531,45.562 C561.51,45.557 561.481,45.533 561.476,45.514 C561.471,45.491 561.479,45.454 561.494,45.439 C561.633,45.316 561.764,45.188 561.911,45.079 C562.218,44.851 562.5,44.594 562.776,44.33 C563.293,43.839 563.728,43.285 564.118,42.692 C564.172,42.609 564.227,42.526 564.284,42.446 C564.769,41.772 565.104,41.028 565.34,40.236 C565.52,39.639 565.652,39.032 565.762,38.419 C565.879,37.765 565.981,37.108 566.054,36.447 C566.075,36.265 566.092,36.08 566.086,35.898 C566.069,35.446 566.053,34.993 565.975,34.545 Z M523.91,7.352 C524.425,7.349 524.94,7.349 525.455,7.355 C525.864,7.363 526.273,7.368 526.68,7.386 C526.867,7.394 527.055,7.404 527.242,7.415 C527.648,7.438 528.052,7.474 528.456,7.508 C528.804,7.538 529.152,7.563 529.5,7.601 C529.536,7.605 529.571,7.61 529.607,7.614 C530.116,7.67 530.622,7.735 531.125,7.808 C531.604,7.879 532.08,7.961 532.558,8.044 C532.715,8.072 532.874,8.099 533.031,8.129 C533.812,8.27 534.587,8.434 535.354,8.629 C535.385,8.636 535.416,8.643 535.446,8.65 C536.043,8.804 536.623,9.019 537.197,9.236 C539.422,10.074 541.504,11.178 543.452,12.536 C543.733,12.732 543.98,12.961 544.202,13.221 C544.618,13.709 544.945,14.253 545.218,14.832 C545.562,15.565 545.806,16.332 545.98,17.121 C546.238,18.273 546.349,19.439 546.337,20.619 C546.331,21.228 546.305,21.836 546.231,22.441 C546.084,23.653 545.819,24.837 545.358,25.972 C545.08,26.657 544.719,27.295 544.279,27.891 C544.272,27.901 544.271,27.917 544.268,27.931 C544.293,27.937 544.32,27.952 544.344,27.946 C544.369,27.94 544.391,27.917 544.414,27.901 C545.904,26.903 547.546,26.276 549.297,25.923 C550.524,25.676 551.764,25.564 553.013,25.612 C554.693,25.675 556.328,25.978 557.891,26.621 C558.691,26.951 559.446,27.368 560.145,27.881 C561.375,28.783 562.276,29.941 562.865,31.343 C563.219,32.182 563.446,33.056 563.574,33.957 C563.659,34.576 563.705,35.196 563.695,35.819 C563.663,37.887 563.213,39.857 562.276,41.708 C561.844,42.558 561.314,43.342 560.664,44.041 C559.792,44.98 558.77,45.694 557.55,46.11 C557.484,46.133 557.423,46.165 557.359,46.194 C557.352,46.198 557.35,46.218 557.35,46.229 C557.352,46.242 557.357,46.263 557.365,46.266 C557.421,46.283 557.475,46.302 557.528,46.308 C558.473,46.415 559.404,46.586 560.321,46.829 C561.198,47.062 562.048,47.368 562.859,47.779 C563.711,48.211 564.488,48.747 565.174,49.416 C566.016,50.237 566.652,51.198 567.127,52.271 C567.523,53.168 567.793,54.104 567.977,55.065 C568.178,56.11 568.294,57.164 568.337,58.226 C568.359,58.777 568.39,59.329 568.37,59.881 C568.335,60.815 568.285,61.747 568.172,62.675 C567.7,66.513 566.526,70.125 564.656,73.505 C560.697,80.665 555.264,86.434 548.312,90.759 C544.512,93.125 540.438,94.857 536.105,95.979 C534.832,96.309 533.545,96.577 532.246,96.791 C531.283,96.95 530.314,97.077 529.344,97.175 C528.782,97.233 528.216,97.262 527.65,97.303 C526.463,97.391 525.276,97.427 524.087,97.42 C523.167,97.416 522.248,97.39 521.33,97.342 C520.481,97.296 519.635,97.227 518.789,97.133 C518.031,97.049 517.271,96.955 516.518,96.836 C515.162,96.622 513.818,96.347 512.488,96.005 C510.458,95.483 508.476,94.815 506.552,93.976 C504.144,92.924 501.876,91.63 499.771,90.052 C498.214,88.885 496.783,87.581 495.517,86.101 C493.836,84.134 492.528,81.948 491.66,79.506 C491.259,78.385 490.962,77.236 490.76,76.062 C490.606,75.183 490.516,74.297 490.463,73.406 C490.432,72.869 490.44,72.331 490.483,71.794 C490.523,71.285 490.574,70.78 490.656,70.276 C490.796,69.423 491.005,68.587 491.248,67.758 C491.352,67.405 491.46,67.055 491.563,66.701 C491.708,66.212 491.922,65.749 492.096,65.271 C492.179,65.044 492.28,64.826 492.394,64.614 C492.447,64.515 492.501,64.415 492.564,64.321 C493.876,62.305 495.488,60.578 497.465,59.2 C499.095,58.066 500.871,57.242 502.772,56.686 C503.875,56.364 504.995,56.135 506.135,55.987 C507.484,55.813 508.841,55.726 510.2,55.772 C511.105,55.802 512.008,55.87 512.907,55.987 C514.625,56.212 516.302,56.6 517.933,57.188 C519,57.573 520.027,58.043 521.005,58.621 C521.103,58.679 521.2,58.735 521.301,58.789 C521.936,59.124 522.468,59.583 522.929,60.13 C523.396,60.686 523.771,61.3 524.08,61.956 C524.513,62.87 524.807,63.827 524.996,64.818 C525.184,65.793 525.275,66.778 525.251,67.773 C525.217,69.271 524.972,70.727 524.408,72.123 C524.37,72.214 524.333,72.307 524.286,72.394 C524.271,72.425 524.228,72.443 524.18,72.479 C524.194,72.26 524.216,72.065 524.221,71.867 C524.239,71.174 524.239,70.48 524.146,69.791 C524.108,69.526 524.048,69.263 523.983,69.003 C523.826,68.369 523.605,67.757 523.318,67.171 C522.428,65.354 521.05,64.05 519.196,63.248 C518.349,62.88 517.46,62.657 516.543,62.532 C515.57,62.4 514.595,62.399 513.618,62.471 C511.96,62.593 510.389,63.031 508.938,63.861 C506.758,65.112 505.225,66.926 504.287,69.253 C503.938,70.122 503.71,71.025 503.58,71.955 C503.434,72.983 503.421,74.014 503.527,75.045 C503.646,76.151 503.952,77.208 504.408,78.222 C504.882,79.273 505.491,80.24 506.205,81.143 C506.972,82.113 507.835,82.988 508.786,83.776 C509.157,84.085 509.55,84.362 509.971,84.6 C510.411,84.853 510.851,85.113 511.303,85.346 C511.717,85.561 512.13,85.778 512.573,85.935 C512.812,86.019 513.043,86.132 513.277,86.228 C513.936,86.493 514.62,86.669 515.311,86.825 C516.276,87.043 517.253,87.208 518.237,87.325 C519.716,87.503 521.199,87.558 522.687,87.533 C523.409,87.522 524.129,87.484 524.848,87.419 C527.757,87.154 530.573,86.517 533.26,85.347 C536.851,83.783 539.833,81.436 542.236,78.348 C543.609,76.585 544.721,74.668 545.63,72.63 C546.451,70.792 547.09,68.891 547.592,66.941 C547.934,65.611 548.205,64.267 548.42,62.911 C548.537,62.171 548.634,61.427 548.718,60.682 C548.807,59.894 548.879,59.104 548.931,58.314 C548.998,57.27 549.053,56.223 549.049,55.175 C549.045,54.297 549.047,53.42 549.032,52.542 C549.017,51.623 548.964,50.704 548.896,49.787 C548.857,49.264 548.822,48.741 548.777,48.22 C548.741,47.797 548.695,47.375 548.65,46.953 C548.616,46.616 548.576,46.277 548.534,45.941 C548.472,45.421 548.404,44.902 548.334,44.384 C548.334,44.372 548.317,44.361 548.301,44.34 C548.282,44.378 548.253,44.41 548.251,44.444 C548.239,44.684 548.228,44.925 548.222,45.166 C548.208,45.943 548.203,46.722 548.182,47.5 C548.154,48.589 548.113,49.678 548.047,50.766 C548.007,51.416 547.975,52.066 547.931,52.716 C547.892,53.252 547.843,53.788 547.796,54.323 C547.766,54.676 547.726,55.027 547.694,55.379 C547.582,56.606 547.422,57.827 547.234,59.043 C546.941,60.931 546.563,62.802 546.062,64.647 C545.402,67.072 544.515,69.407 543.331,71.627 C542.905,72.427 542.444,73.205 541.9,73.934 C541.378,74.642 540.79,75.291 540.104,75.848 C540.005,75.927 539.901,76.002 539.797,76.075 C539.776,76.091 539.745,76.093 539.702,76.108 C539.589,76.049 539.462,75.988 539.338,75.92 C537.938,75.149 536.699,74.168 535.588,73.024 C534.567,71.975 533.684,70.818 532.901,69.582 C532.04,68.214 531.324,66.771 530.717,65.273 C530.61,65.009 530.557,64.732 530.493,64.455 C530.28,63.531 530.136,62.594 530.029,61.652 C529.92,60.667 529.896,59.676 529.909,58.684 C529.921,57.862 529.985,57.044 530.099,56.23 C530.389,54.153 530.973,52.168 531.982,50.32 C532.597,49.195 533.353,48.174 534.284,47.289 C534.674,46.918 535.092,46.58 535.533,46.269 C535.708,46.147 535.893,46.049 536.096,45.979 C536.538,45.825 536.984,45.693 537.445,45.614 C537.893,45.537 538.317,45.599 538.73,45.779 C538.859,45.836 538.989,45.894 539.12,45.947 C539.33,46.035 539.548,46.093 539.774,46.123 C540.255,46.186 540.669,46.05 541.004,45.691 C541.16,45.525 541.285,45.337 541.395,45.138 C541.577,44.8 541.709,44.442 541.814,44.074 C541.993,43.447 542.114,42.809 542.17,42.158 C542.182,42.031 542.199,41.905 542.209,41.777 C542.267,41.079 542.202,40.393 541.986,39.723 C541.879,39.384 541.725,39.066 541.51,38.781 C541.32,38.529 541.097,38.316 540.822,38.159 C540.383,37.908 539.915,37.85 539.427,37.949 C539.047,38.025 538.702,38.188 538.383,38.404 C538.277,38.475 538.175,38.55 538.069,38.623 C538.018,38.659 537.959,38.654 537.91,38.62 C537.785,38.53 537.654,38.442 537.539,38.34 C537.422,38.237 537.317,38.12 537.212,38.006 C537.116,37.903 537.027,37.793 536.929,37.69 C536.832,37.588 536.73,37.487 536.627,37.392 C536.224,37.024 535.758,36.943 535.243,37.095 C535.122,37.131 535.006,37.185 534.886,37.226 C534.813,37.251 534.744,37.231 534.694,37.172 C534.538,36.989 534.382,36.806 534.233,36.618 C533.848,36.127 533.502,35.609 533.164,35.086 C532.826,34.564 532.494,34.038 532.156,33.514 C531.787,32.943 531.404,32.381 530.989,31.844 C530.633,31.384 530.253,30.946 529.83,30.547 C529.469,30.206 529.08,29.899 528.656,29.64 C527.945,29.206 527.174,28.941 526.345,28.854 C525.757,28.793 525.188,28.883 524.645,29.114 C524.303,29.259 523.99,29.45 523.693,29.669 C523.314,29.948 522.973,30.267 522.655,30.61 C522.192,31.109 521.783,31.652 521.416,32.225 C520.383,33.834 519.633,35.566 519.176,37.423 C519.009,38.097 518.915,38.783 518.869,39.477 C518.83,40.086 518.831,40.693 518.882,41.3 C518.939,41.981 519.072,42.645 519.31,43.286 C519.464,43.698 519.66,44.089 519.915,44.45 C520.43,45.178 521.11,45.687 521.952,45.976 C522.073,46.017 522.196,46.051 522.316,46.09 C522.365,46.105 522.4,46.182 522.38,46.229 C522.327,46.345 522.278,46.462 522.218,46.574 C521.917,47.138 521.541,47.652 521.116,48.128 C520.65,48.646 520.134,49.109 519.579,49.528 C518.557,50.3 517.442,50.911 516.269,51.415 C514.951,51.98 513.588,52.395 512.188,52.698 C511.398,52.868 510.602,52.997 509.801,53.09 C509.338,53.144 508.87,53.172 508.405,53.204 C508.123,53.223 507.839,53.232 507.557,53.236 C507.217,53.241 506.877,53.244 506.537,53.236 C505.887,53.222 505.236,53.189 504.589,53.115 C502.807,52.912 501.078,52.509 499.438,51.764 C498.322,51.258 497.296,50.612 496.4,49.77 C495.831,49.235 495.327,48.644 494.862,48.018 C493.702,46.457 492.864,44.733 492.308,42.874 C492.016,41.896 491.81,40.899 491.69,39.885 C491.589,39.026 491.535,38.166 491.549,37.301 C491.559,36.665 491.609,36.029 491.672,35.396 C491.725,34.889 491.789,34.384 491.864,33.88 C492.023,32.83 492.24,31.792 492.515,30.766 C493.435,27.314 494.94,24.132 496.952,21.186 C498.314,19.191 499.862,17.355 501.595,15.674 C502.953,14.358 504.463,13.239 506.084,12.269 C507.95,11.153 509.92,10.265 511.971,9.555 C513.644,8.975 515.35,8.521 517.086,8.17 C518.002,7.985 518.924,7.829 519.848,7.7 C520.435,7.618 521.026,7.559 521.618,7.497 C522.066,7.45 522.516,7.413 522.965,7.376 C523.279,7.365 523.594,7.357 523.91,7.352 Z M524.621,0.334 C495.765,0.334 472.288,23.811 472.288,52.667 C472.288,81.523 495.765,105 524.621,105 C553.478,105 576.954,81.523 576.954,52.667 C576.954,23.811 553.478,0.334 524.621,0.334 L524.621,0.334 Z" id="Fill-10"></path>
        </g>
    </g>
</svg>