<?xml version="1.0" encoding="UTF-8"?>
<svg width="2218px" height="2223px" viewBox="0 0 2218 2223" version="1.1" xmlns="http://www.w3.org/2000/svg" xmlns:xlink="http://www.w3.org/1999/xlink">
    <!-- Generator: Sketch 43.1 (39012) - http://www.bohemiancoding.com/sketch -->
    <title>Untitled</title>
    <desc>Created with Sketch.</desc>
    <defs>
        <polygon id="path-1" points="2217.45 2222.99504 2217.45 0.71 0.06 0.71 0.06 2222.99504"></polygon>
    </defs>
    <g id="Page-1" stroke="none" stroke-width="1" fill="none" fill-rule="evenodd">
        <g id="JUR_Sign_Embryo">
            <g id="Group-3">
                <mask id="mask-2" fill="white">
                    <use xlink:href="#path-1"></use>
                </mask>
                <g id="Clip-2"></g>
                <path d="M2023.04,709.617 C2022.96,710.183 2022.71,710.773 2022.8,711.304 C2024.54,721.191 2024.9,731.199 2025.25,741.191 C2025.39,745.23 2025.02,749.312 2024.57,753.341 C2022.96,767.949 2020.67,782.462 2018.1,796.927 C2015.69,810.469 2012.75,823.899 2008.79,837.09 C2003.56,854.587 1996.12,871.034 1985.44,885.93 C1984.17,887.708 1982.96,889.538 1981.76,891.367 C1973.15,904.48 1963.49,916.722 1952.12,927.576 C1946.01,933.408 1939.78,939.083 1932.98,944.131 C1929.74,946.544 1926.79,949.376 1923.78,952.088 C1923.41,952.419 1923.22,953.254 1923.36,953.745 C1923.48,954.183 1924.12,954.701 1924.6,954.783 C1931.99,956.049 1939.43,957.071 1946.78,958.503 C1961.26,961.321 1975.23,965.808 1988.58,972.102 C2014.35,984.25 2035.16,1002.27 2051.49,1025.53 C2061.98,1040.46 2070.07,1056.63 2076.58,1073.64 C2086.9,1100.64 2093.06,1128.67 2097.14,1157.21 C2098.91,1169.59 2100.5,1181.99 2101.33,1194.48 C2101.47,1196.62 2102.23,1198.72 2102.76,1200.83 C2102.81,1201.01 2103.28,1201.17 2103.56,1201.18 C2103.72,1201.19 2104.04,1200.91 2104.06,1200.74 C2104.87,1189.52 2105.74,1178.31 2106.41,1167.08 C2106.86,1159.59 2106.97,1152.08 2107.33,1144.58 C2108.23,1125.83 2108.29,1107.07 2107.79,1088.31 C2107.54,1078.62 2107.05,1068.94 2106.5,1059.26 C2105.8,1047.09 2105.19,1034.9 2104.05,1022.76 C2102.29,1004.09 2100.19,985.459 2097.49,966.887 C2094.52,946.463 2090.97,926.148 2086.82,905.945 C2079.77,871.634 2070.76,837.83 2060.03,804.48 C2053.62,784.538 2046.47,764.861 2038.95,745.321 C2034.8,734.534 2030.23,723.91 2025.86,713.205 C2025.26,711.729 2024.56,710.36 2023.04,709.617 Z M1108.26,951.672 C1136.23,951.556 1159.01,947.896 1181.31,941.241 C1195.79,936.921 1209.39,930.674 1221.79,921.964 C1226.91,918.37 1232.04,914.776 1237.01,910.99 C1251.96,899.621 1266.22,887.418 1280.33,875.031 C1286.68,869.453 1292.63,863.454 1298.18,857.072 C1303.74,850.686 1308.79,843.932 1312.88,836.496 C1316.68,829.594 1319.39,822.346 1320.71,814.524 C1321.89,807.497 1321.32,800.789 1318.14,794.415 C1315.64,789.381 1313.15,784.306 1310.21,779.523 C1294.28,753.605 1276.19,729.279 1255.69,706.796 C1243.41,693.325 1229.53,681.674 1214.05,671.993 C1204.2,665.834 1193.85,660.748 1182.72,657.297 C1164.65,651.699 1146.96,652.54 1129.56,659.983 C1124.09,662.327 1118.85,665.104 1113.82,668.302 C1106.95,672.683 1100.55,677.687 1094.54,683.203 C1083.2,693.629 1073.4,705.384 1064.79,718.132 C1048.38,742.443 1036.46,768.822 1028.53,797.052 C1021.8,821.019 1018.41,845.378 1019.52,870.293 C1020.13,884.103 1022.41,897.623 1026.63,910.819 C1029.79,920.718 1035.71,928.549 1043.94,934.723 C1047.71,937.545 1051.78,939.848 1056.06,941.818 C1063.5,945.24 1071.3,947.426 1079.3,949.019 C1090.4,951.23 1101.64,951.66 1108.26,951.672 Z M1098.94,1549.78 C1100.01,1548.97 1100.97,1548.59 1101.34,1547.89 C1102.36,1545.97 1103.18,1543.93 1104,1541.9 C1116.47,1511.07 1121.92,1478.86 1122.68,1445.75 C1123.19,1423.77 1121.15,1402 1117.02,1380.43 C1112.84,1358.54 1106.32,1337.37 1096.77,1317.18 C1089.92,1302.69 1081.66,1289.09 1071.32,1276.81 C1061.14,1264.73 1049.37,1254.57 1035.33,1247.17 C1033.11,1246 1030.95,1244.73 1028.8,1243.46 C1007.19,1230.69 984.477,1220.3 960.887,1211.79 C924.859,1198.79 887.788,1190.22 849.823,1185.25 C829.943,1182.65 809.992,1181.16 789.984,1180.48 C759.905,1179.45 729.964,1181.38 700.123,1185.25 C674.954,1188.52 650.17,1193.57 625.816,1200.69 C583.761,1212.97 544.5,1231.2 508.494,1256.27 C464.77,1286.71 429.143,1324.91 400.145,1369.45 C398.782,1371.54 397.563,1373.73 396.38,1375.94 C393.862,1380.62 391.627,1385.43 389.803,1390.44 C385.959,1401.02 381.221,1411.26 378.032,1422.08 C375.734,1429.87 373.344,1437.64 371.057,1445.44 C365.687,1463.75 361.063,1482.24 357.977,1501.1 C356.156,1512.22 355.027,1523.41 354.149,1534.64 C353.221,1546.52 353.01,1558.4 353.711,1570.27 C354.874,1589.95 356.887,1609.53 360.258,1628.98 C364.756,1654.93 371.298,1680.32 380.14,1705.11 C399.381,1759.06 428.244,1807.41 465.421,1850.87 C493.408,1883.59 525.031,1912.4 559.439,1938.21 C605.951,1973.09 656.105,2001.69 709.353,2024.93 C751.856,2043.48 795.657,2058.23 840.554,2069.78 C869.946,2077.35 899.658,2083.41 929.625,2088.14 C946.3,2090.77 963.056,2092.88 979.847,2094.74 C998.513,2096.81 1017.22,2098.35 1035.95,2099.34 C1056.25,2100.41 1076.6,2100.97 1096.92,2101.08 C1123.2,2101.21 1149.47,2100.43 1175.7,2098.49 C1188.17,2097.57 1200.68,2096.95 1213.12,2095.67 C1234.59,2093.46 1255.98,2090.68 1277.28,2087.17 C1306,2082.44 1334.45,2076.51 1362.61,2069.21 C1458.36,2044.41 1548.42,2006.13 1632.4,1953.86 C1786.02,1858.23 1906.13,1730.7 1993.68,1572.47 C2035.02,1497.74 2060.94,1417.91 2071.36,1333.07 C2073.88,1312.54 2074.96,1291.95 2075.72,1271.32 C2076.18,1259.11 2075.52,1246.92 2075.01,1234.73 C2074.05,1211.25 2071.48,1187.96 2067.08,1164.88 C2063.02,1143.62 2057.03,1122.94 2048.26,1103.11 C2037.77,1079.39 2023.69,1058.14 2005.09,1039.98 C1989.96,1025.21 1972.77,1013.36 1953.95,1003.82 C1936.03,994.737 1917.23,987.975 1897.84,982.826 C1877.55,977.441 1856.97,973.652 1836.12,971.309 C1834.9,971.173 1833.7,970.749 1832.52,970.377 C1832.33,970.316 1832.2,969.843 1832.16,969.544 C1832.13,969.3 1832.21,968.877 1832.37,968.801 C1833.76,968.139 1835.14,967.428 1836.59,966.934 C1863.56,957.755 1886.15,941.975 1905.43,921.212 C1919.79,905.743 1931.49,888.412 1941.02,869.623 C1961.76,828.725 1971.73,785.18 1972.43,739.457 C1972.65,725.686 1971.63,711.962 1969.72,698.297 C1966.92,678.367 1961.86,659.068 1954.06,640.523 C1941.03,609.534 1921.11,583.936 1893.95,564.002 C1878.48,552.648 1861.83,543.44 1844.12,536.147 C1809.58,521.926 1773.44,515.254 1736.28,513.835 C1708.66,512.781 1681.3,515.265 1654.19,520.72 C1615.45,528.516 1579.18,542.366 1546.22,564.44 C1545.7,564.789 1545.22,565.307 1544.65,565.436 C1544.15,565.549 1543.56,565.226 1543,565.096 C1543.09,564.799 1543.1,564.448 1543.27,564.215 C1552.95,551.05 1560.94,536.941 1567.1,521.8 C1577.3,496.71 1583.17,470.549 1586.41,443.734 C1588.03,430.359 1588.59,416.933 1588.73,403.469 C1588.99,377.401 1586.53,351.621 1580.86,326.165 C1576.98,308.717 1571.6,291.764 1563.99,275.554 C1557.98,262.753 1550.73,250.74 1541.53,239.945 C1536.64,234.202 1531.19,229.146 1524.97,224.808 C1481.9,194.79 1435.88,170.385 1386.75,151.885 C1373.88,147.037 1360.97,142.202 1347.63,138.802 C1329.15,134.091 1310.5,130.091 1291.71,126.769 C1278.17,124.373 1264.6,122.067 1250.99,120.046 C1239.55,118.347 1228.06,116.968 1216.55,115.722 C1206.61,114.645 1196.61,114.029 1186.65,113.075 C1169.82,111.463 1152.93,110.748 1136.05,110.319 C1118.23,109.867 1100.39,110.176 1082.56,110.206 C1079.43,110.211 1076.3,110.385 1073.19,110.649 C1062.9,111.525 1052.61,112.36 1042.35,113.431 C1029.29,114.793 1016.21,116.095 1003.2,117.917 C982.769,120.78 962.428,124.231 942.187,128.311 C903.82,136.045 866.091,146.1 829.114,158.91 C783.776,174.617 740.226,194.243 699.009,218.909 C663.169,240.358 629.788,265.086 599.787,294.189 C561.496,331.335 527.22,371.911 497.139,415.994 C452.687,481.139 419.391,551.46 399.05,627.771 C393.006,650.447 388.193,673.381 384.695,696.597 C383.016,707.734 381.574,718.892 380.448,730.097 C379.041,744.108 377.926,758.136 377.705,772.222 C377.406,791.332 378.605,810.35 380.836,829.333 C383.471,851.759 388.028,873.773 394.488,895.381 C406.782,936.503 425.292,974.574 450.926,1009.09 C461.206,1022.92 472.375,1036 484.948,1047.82 C504.748,1066.44 527.416,1080.72 552.101,1091.91 C588.349,1108.35 626.564,1117.26 665.942,1121.77 C680.256,1123.41 694.625,1124.13 709.013,1124.44 C716.515,1124.6 724.024,1124.54 731.528,1124.42 C737.782,1124.32 744.044,1124.14 750.284,1123.72 C760.581,1123.02 770.897,1122.4 781.142,1121.21 C798.847,1119.14 816.439,1116.3 833.88,1112.54 C864.832,1105.85 894.989,1096.66 924.105,1084.17 C950.07,1073.04 974.699,1059.53 997.294,1042.47 C1009.56,1033.21 1020.95,1022.98 1031.23,1011.53 C1040.67,1001.01 1048.95,989.664 1055.6,977.172 C1056.92,974.697 1058.03,972.109 1059.19,969.553 C1059.66,968.519 1058.88,966.815 1057.81,966.473 C1055.13,965.616 1052.42,964.862 1049.76,963.953 C1031.11,957.57 1016.09,946.325 1004.71,930.227 C999.08,922.26 994.716,913.627 991.327,904.497 C986.068,890.329 983.118,875.658 981.875,860.622 C980.765,847.191 980.725,833.777 981.605,820.312 C982.608,804.969 984.664,789.806 988.344,774.904 C998.477,733.868 1015.05,695.572 1037.89,660.005 C1046.02,647.346 1055.05,635.364 1065.3,624.323 C1072.33,616.739 1079.85,609.682 1088.19,603.53 C1094.76,598.686 1101.69,594.454 1109.21,591.263 C1121.26,586.154 1133.82,584.152 1146.84,585.512 C1165.17,587.426 1182.19,593.274 1197.92,602.879 C1207.31,608.609 1215.89,615.375 1223.87,622.924 C1233.21,631.762 1241.62,641.431 1249.48,651.59 C1258.68,663.476 1267.13,675.886 1275.26,688.511 C1282.72,700.08 1290.1,711.696 1297.57,723.257 C1305.04,734.82 1312.69,746.261 1321.2,757.1 C1324.48,761.281 1327.95,765.314 1331.38,769.373 C1332.48,770.67 1333.99,771.112 1335.61,770.556 C1338.27,769.643 1340.85,768.458 1343.54,767.666 C1354.89,764.325 1365.21,766.114 1374.11,774.228 C1376.42,776.333 1378.63,778.554 1380.78,780.82 C1382.93,783.088 1384.91,785.52 1387.04,787.807 C1389.39,790.322 1391.68,792.915 1394.26,795.179 C1396.83,797.438 1399.69,799.378 1402.49,801.36 C1403.55,802.112 1404.82,802.216 1405.98,801.414 C1408.3,799.818 1410.58,798.171 1412.91,796.596 C1419.98,791.82 1427.6,788.219 1435.99,786.532 C1446.79,784.36 1457.15,785.62 1466.82,791.174 C1472.89,794.656 1477.86,799.349 1482.03,804.925 C1486.76,811.252 1490.19,818.254 1492.58,825.751 C1497.3,840.547 1498.75,855.717 1497.49,871.166 C1497.26,873.971 1496.87,876.764 1496.63,879.569 C1495.41,893.949 1492.72,908.059 1488.77,921.926 C1486.45,930.059 1483.51,937.968 1479.47,945.431 C1477.08,949.849 1474.29,953.987 1470.85,957.672 C1463.45,965.6 1454.29,968.615 1443.67,967.205 C1438.7,966.546 1433.85,965.265 1429.2,963.34 C1426.31,962.144 1423.46,960.87 1420.59,959.612 C1411.49,955.613 1402.08,954.269 1392.21,955.961 C1382,957.713 1372.13,960.636 1362.37,964.015 C1357.89,965.564 1353.8,967.743 1349.93,970.459 C1340.18,977.299 1330.94,984.766 1322.31,992.977 C1301.73,1012.56 1285.04,1035.11 1271.45,1059.98 C1249.12,1100.83 1236.21,1144.7 1229.81,1190.63 C1227.31,1208.62 1225.88,1226.69 1225.63,1244.86 C1225.32,1266.78 1225.86,1288.67 1228.28,1310.46 C1230.6,1331.29 1233.83,1351.98 1238.53,1372.43 C1239.93,1378.53 1241.1,1384.67 1243.46,1390.5 C1256.89,1423.61 1272.71,1455.5 1291.8,1485.74 C1309.06,1513.07 1328.59,1538.62 1351.14,1561.82 C1375.72,1587.11 1403.09,1608.79 1434.03,1625.84 C1436.75,1627.34 1439.56,1628.7 1442.08,1629.99 C1443.04,1629.67 1443.72,1629.61 1444.19,1629.27 C1446.48,1627.64 1448.78,1626.01 1450.96,1624.24 C1466.13,1611.95 1479.1,1597.59 1490.7,1581.94 C1502.65,1565.82 1512.87,1548.62 1522.3,1530.94 C1548.46,1481.88 1568.08,1430.26 1582.65,1376.65 C1593.73,1335.87 1602.1,1294.52 1608.56,1252.78 C1612.72,1225.9 1616.28,1198.92 1618.73,1171.81 C1619.44,1164.03 1620.3,1156.25 1620.98,1148.46 C1622.02,1136.63 1623.11,1124.79 1623.93,1112.93 C1624.92,1098.58 1625.63,1084.2 1626.52,1069.84 C1628.01,1045.79 1628.89,1021.72 1629.53,997.645 C1629.98,980.444 1630.1,963.235 1630.42,946.03 C1630.52,940.714 1630.76,935.4 1631.04,930.091 C1631.08,929.35 1631.72,928.641 1632.13,927.811 C1632.53,928.279 1632.87,928.499 1632.91,928.76 C1634.4,940.232 1635.9,951.703 1637.32,963.184 C1638.24,970.633 1639.1,978.091 1639.89,985.554 C1640.88,994.884 1641.89,1004.21 1642.68,1013.56 C1643.66,1025.09 1644.43,1036.64 1645.29,1048.18 C1646.81,1068.46 1647.97,1088.77 1648.31,1109.1 C1648.63,1128.5 1648.57,1147.89 1648.67,1167.29 C1648.77,1190.46 1647.56,1213.59 1646.04,1236.68 C1644.9,1254.15 1643.31,1271.6 1641.34,1289.01 C1639.48,1305.49 1637.37,1321.93 1634.78,1338.29 C1630.04,1368.26 1624.02,1397.98 1616.47,1427.37 C1605.4,1470.46 1591.27,1512.49 1573.11,1553.13 C1552.99,1598.15 1528.4,1640.53 1498.09,1679.49 C1444.98,1747.76 1379.05,1799.64 1299.66,1834.22 C1240.31,1860.06 1178.04,1874.15 1113.76,1880.01 C1097.88,1881.46 1081.94,1882.27 1065.98,1882.54 C1033.09,1883.08 1000.29,1881.86 967.623,1877.94 C945.882,1875.33 924.299,1871.69 902.929,1866.87 C887.67,1863.43 872.536,1859.54 857.991,1853.67 C852.774,1851.57 847.704,1849.06 842.409,1847.19 C832.639,1843.73 823.493,1838.93 814.343,1834.2 C804.346,1829.04 794.661,1823.27 784.873,1817.71 C775.603,1812.44 766.931,1806.3 758.726,1799.5 C737.7,1782.06 718.618,1762.72 701.671,1741.29 C685.891,1721.33 672.411,1699.95 661.947,1676.72 C651.856,1654.31 645.086,1630.95 642.509,1606.5 C640.107,1583.71 640.416,1560.93 643.63,1538.17 C646.532,1517.63 651.547,1497.67 659.287,1478.45 C679.983,1427.05 713.88,1386.93 762.105,1359.3 C794.139,1340.95 828.87,1331.26 865.545,1328.55 C887.097,1326.95 908.662,1326.99 930.171,1329.92 C950.432,1332.68 970.081,1337.61 988.845,1345.74 C1029.81,1363.47 1060.27,1392.3 1079.93,1432.46 C1086.28,1445.43 1091.17,1458.93 1094.64,1472.93 C1096.06,1478.69 1097.43,1484.5 1098.23,1490.36 C1100.29,1505.59 1100.28,1520.94 1099.88,1536.27 C1099.76,1540.62 1099.29,1544.96 1098.94,1549.78 Z M1077.94,1627.14 L1077.99,1627.43 C1077.76,1626.54 1077.27,1625.63 1077.33,1624.76 C1077.58,1621.01 1077.9,1617.27 1078.37,1613.55 C1079.97,1601.12 1080.76,1588.64 1080.97,1576.13 C1081.23,1561.09 1080.08,1546.13 1077.96,1531.24 C1075.24,1512.25 1070.41,1493.86 1062.8,1476.25 C1044.63,1434.13 1014.62,1403.71 972.519,1385.36 C969.088,1383.86 965.57,1382.42 961.949,1381.53 C945.209,1377.45 928.231,1374.62 911.029,1373.65 C895.722,1372.78 880.412,1372.89 865.127,1374.87 C850.488,1376.77 836.143,1379.8 822.268,1384.78 C774.394,1401.96 740.019,1433.73 719.71,1480.45 C710.903,1500.71 706.021,1522.04 704.409,1544 C702.424,1571.04 705.104,1597.73 711.876,1624 C718.318,1648.98 729.803,1671.29 747.118,1690.48 C751.724,1695.59 756.476,1700.58 761.431,1705.35 C773.64,1717.09 787.043,1727.36 801.134,1736.74 C821.497,1750.29 842.996,1761.76 865.375,1771.59 C903.328,1788.26 942.675,1800.3 983.515,1807.56 C1003.89,1811.19 1024.41,1813.15 1045.05,1814.01 C1058.18,1814.55 1071.31,1813.95 1084.44,1813.17 C1102.9,1812.09 1121.2,1809.86 1139.36,1806.58 C1174.54,1800.23 1208.73,1790.31 1241.9,1776.97 C1280.96,1761.27 1317.82,1741.54 1351.89,1716.74 C1368.87,1704.38 1384.88,1690.88 1399.44,1675.71 C1400.92,1674.17 1402.25,1672.48 1403.48,1671.06 C1403.09,1668.96 1401.78,1668.02 1400.59,1667.03 C1395.3,1662.63 1389.97,1658.28 1384.66,1653.89 C1364.17,1636.94 1343.91,1619.72 1324.45,1601.59 C1300.37,1579.16 1277.68,1555.46 1257.45,1529.46 C1235.65,1501.43 1217.27,1471.37 1203.1,1438.75 C1182.55,1391.42 1172.12,1341.81 1169.77,1290.42 C1168.33,1258.8 1169.41,1227.24 1173.64,1195.84 C1176.65,1173.5 1180.91,1151.41 1186.86,1129.66 C1194.96,1100.01 1205.68,1071.37 1220.25,1044.24 C1229.91,1026.27 1241.07,1009.32 1254.36,993.816 C1266.85,979.244 1280.88,966.391 1297.02,955.927 C1314.27,944.74 1332.88,936.846 1353.18,933.293 C1359.33,932.216 1365.58,931.62 1371.81,931.1 C1389.03,929.661 1406.19,929.932 1423.13,933.843 C1429.83,935.39 1436.48,937.148 1443.19,938.647 C1446.23,939.324 1449.34,939.795 1452.44,940.015 C1455.71,940.247 1458.49,938.864 1460.89,936.606 C1463,934.619 1464.25,932.119 1465.46,929.576 C1470.44,919.076 1473.99,908.083 1476.62,896.787 C1480.03,882.103 1481.98,867.252 1481.25,852.137 C1480.81,843.025 1479.28,834.125 1475.89,825.598 C1473.43,819.399 1469.91,813.936 1464.96,809.423 C1460.44,805.312 1455.16,804.092 1449.28,805.28 C1444.9,806.167 1441,808.149 1437.71,811.165 C1434.94,813.697 1432.38,816.448 1429.62,818.995 C1426.87,821.538 1424.17,824.191 1421.13,826.356 C1416.69,829.52 1411.64,831.07 1406.09,830.628 C1401.93,830.296 1398.14,828.78 1394.79,826.426 C1391.47,824.096 1388.4,821.41 1385.31,818.77 C1382.23,816.126 1379.39,813.173 1376.19,810.684 C1373.75,808.784 1371.03,807.132 1368.21,805.842 C1363.74,803.788 1359.17,804.102 1354.56,805.934 C1350.33,807.614 1348.32,810.898 1347.02,814.91 C1346.54,816.397 1346.07,817.89 1345.54,819.36 C1342.46,827.891 1339.11,836.309 1335.24,844.524 C1313.39,891 1279.43,925.51 1233.2,947.951 C1219.67,954.523 1205.66,959.85 1191.23,964.072 C1172.58,969.529 1153.62,973.468 1134.3,975.533 C1130.64,975.923 1127.73,977.227 1125.31,979.935 C1123.23,982.267 1120.97,984.438 1118.87,986.759 C1112.17,994.192 1105.45,1001.62 1098.83,1009.13 C1087.87,1021.58 1076.88,1034.01 1064.78,1045.36 C1054.05,1055.42 1043.02,1065.14 1032.05,1074.93 C1016.83,1088.53 1000.28,1100.35 982.633,1110.52 C967.466,1119.26 952.643,1128.62 936.97,1136.47 C935.609,1137.15 934.418,1138.22 933.272,1139.25 C933.041,1139.46 933.188,1140.62 933.474,1140.78 C934.817,1141.53 936.233,1142.18 937.688,1142.68 C956.043,1149 973.971,1156.33 991.276,1165.15 C1019.03,1179.29 1044.61,1196.56 1067.31,1217.96 C1093.13,1242.3 1113.54,1270.5 1127.71,1303.09 C1140.69,1332.95 1147.68,1364.23 1149.22,1396.73 C1150.42,1422.12 1149.27,1447.41 1144.86,1472.46 C1140.24,1498.71 1133.01,1524.24 1123.28,1549.07 C1116.3,1566.86 1108.19,1584.09 1098.25,1600.44 C1093.37,1608.47 1088.06,1616.2 1082.04,1623.43 C1080.86,1624.85 1079.82,1626.48 1077.94,1627.14 Z M1575.71,225.235 C1575.86,225.94 1575.74,226.044 1575.34,225.545 C1575.56,225.494 1575.78,225.442 1576,225.391 C1575.49,226.611 1575.41,227.779 1576.37,228.853 C1583.69,237.052 1589.75,246.167 1595.48,255.494 C1603.36,268.307 1609.97,281.768 1615.57,295.726 C1626.14,322.039 1632.46,349.376 1634.87,377.58 C1636.23,393.491 1636.05,409.469 1634.89,425.399 C1634.04,436.974 1631.9,448.333 1627.89,459.278 C1623.37,471.6 1619.3,484.096 1613.67,495.988 C1613.41,496.534 1613.31,497.18 1613.27,497.788 C1613.25,498.009 1613.65,498.481 1613.81,498.458 C1614.67,498.325 1615.66,498.293 1616.35,497.835 C1626.82,490.836 1638.03,485.466 1650.19,482.037 C1667.08,477.271 1684.22,473.675 1701.73,472.401 C1727.71,470.512 1753.58,471.486 1779.36,475.576 C1804.47,479.558 1828.95,485.773 1852.72,494.743 C1875.64,503.394 1897.42,514.207 1916.93,529.246 C1917.41,529.616 1917.99,529.867 1918.57,530.079 C1918.8,530.164 1919.17,530.065 1919.39,529.92 C1919.57,529.8 1919.78,529.401 1919.71,529.272 C1919.12,528.177 1918.54,527.063 1917.83,526.051 C1893.15,491.34 1866.8,457.959 1837.82,426.741 C1802.63,388.844 1764.52,354.088 1723.81,322.187 C1679.41,287.38 1632.41,256.516 1582.78,229.651 C1580.33,228.326 1577.59,227.419 1575.71,225.235 Z M467.507,344.422 L467.882,344.293 C467.882,344.293 467.77,344.683 467.766,344.684 C466.581,344.727 465.784,345.2 465.738,346.508 C464.88,346.803 463.874,346.904 463.192,347.428 C460.961,349.142 458.829,350.985 456.693,352.82 C404.04,398.041 356.891,448.452 314.8,503.603 C244.684,595.478 192.006,696.476 156.722,806.532 C144.97,843.189 135.507,880.445 128.081,918.21 C124.46,936.62 121.407,955.137 118.84,973.723 C117.299,984.875 115.974,996.061 114.834,1007.26 C113.759,1017.84 113.036,1028.45 112.19,1039.05 C110.424,1061.2 109.718,1083.4 109.362,1105.61 C109.006,1127.84 110.292,1150.02 111.204,1172.21 C111.602,1181.89 112.375,1191.57 113.346,1201.22 C114.787,1215.53 116.374,1229.83 118.237,1244.09 C120.14,1258.67 122.133,1273.24 124.658,1287.71 C128.957,1312.35 134.302,1336.78 140.51,1361.03 C171.985,1483.95 225.081,1596.73 299.313,1699.59 C313.232,1718.88 327.882,1737.6 343.159,1755.83 C344.537,1757.48 346.398,1758.85 346.67,1761.2 C346.542,1760.45 346.693,1760.34 347.122,1760.85 C346.903,1760.92 346.685,1760.99 346.466,1761.05 C346.924,1759.55 347.365,1758.03 346.535,1756.53 C345.78,1755.16 344.97,1753.82 344.135,1752.5 C338.443,1743.5 333.398,1734.15 328.965,1724.48 C314.933,1693.88 306.047,1661.73 300.468,1628.61 C298.494,1616.89 297.16,1605.1 296.062,1593.26 C294.294,1574.21 294.242,1555.14 295.453,1536.1 C296.365,1521.76 298.003,1507.47 300.168,1493.23 C303.985,1468.15 309.602,1443.5 317.482,1419.39 C332.093,1374.68 353.644,1333.67 383.042,1296.86 C410.626,1262.31 443.4,1233.59 480.558,1209.77 C510.156,1190.8 541.645,1175.65 574.531,1163.33 C577.153,1162.34 579.761,1161.31 582.322,1160.18 C582.76,1159.99 582.922,1159.17 583.226,1158.62 C582.266,1157.28 580.684,1156.99 579.302,1156.43 C573.799,1154.2 568.224,1152.15 562.745,1149.86 C520.917,1132.42 482.165,1109.83 447.327,1080.73 C406.197,1046.37 373.401,1005.42 350.01,957.113 C325.796,907.103 313.995,854.045 311.9,798.731 C311.155,779.047 311.455,759.356 313.176,739.68 C314.376,725.965 315.849,712.293 317.917,698.7 C320.269,683.255 323.271,667.92 326.569,652.639 C336.962,604.473 352.362,558.02 373.664,513.555 C380.144,500.027 386.544,486.461 393.044,472.942 C395.075,468.719 397.248,464.56 399.469,460.432 C409.839,441.165 420.2,421.891 430.677,402.681 C433.667,397.199 436.866,391.814 440.26,386.573 C448.414,373.979 456.753,361.505 464.962,348.946 C465.421,348.244 465.378,347.213 465.571,346.336 C466.974,346.464 467.421,345.626 467.507,344.422 Z M2217.34,1116.36 C2217.85,1136.9 2216.53,1161.91 2214.95,1186.88 C2213.84,1204.36 2212.15,1221.8 2210.18,1239.21 C2207.5,1262.84 2204.12,1286.36 2199.91,1309.75 C2189.13,1369.56 2173.63,1428.15 2153.21,1485.4 C2058.97,1749.64 1869.72,1964.33 1630.7,2092.39 C1551.21,2134.98 1467.72,2167.28 1380.31,2189.43 C1352.12,2196.58 1323.66,2202.51 1294.97,2207.36 C1275.23,2210.69 1255.42,2213.57 1235.54,2215.83 C1217.83,2217.84 1200.07,2219.39 1182.27,2220.56 C1156.02,2222.28 1129.76,2223.12 1103.48,2222.98 C1085.02,2222.89 1066.55,2222.4 1048.13,2221.4 C1029.08,2220.37 1010.06,2218.83 991.078,2216.8 C969.922,2214.53 948.833,2211.8 927.856,2208.33 C882.777,2200.87 838.309,2190.69 794.471,2177.74 C582.957,2115.27 395.729,1990.39 256.487,1822.65 C159.506,1705.83 89.3,1574.62 45.827,1429.14 C34.629,1391.67 25.599,1353.67 18.517,1315.19 C14.383,1292.73 10.881,1270.18 8.111,1247.52 C6.214,1232 4.803,1216.42 3.488,1200.83 C0.195,1161.81 -0.46,1122.73 0.268,1083.61 C0.623,1064.52 1.675,1045.47 3.293,1026.44 C4.141,1016.47 4.823,1006.48 5.859,996.528 C7.123,984.398 8.462,972.267 10.167,960.192 C12.134,946.262 14.459,932.381 16.765,918.501 C21.431,890.415 27.536,862.626 34.609,835.06 C59.786,736.94 97.719,644.015 148.267,556.22 C270.069,344.665 460.417,177.507 685.834,84.268 C746.373,59.228 808.672,39.77 872.672,25.819 C898.643,20.159 924.797,15.451 951.142,11.803 C973.455,8.713 995.82,6.248 1018.27,4.304 C1062.91,0.436 1107.62,0.074 1152.36,1.419 C1167.36,1.869 1182.34,3.187 1197.31,4.259 C1207.3,4.975 1217.27,5.806 1227.23,6.859 C1238.42,8.044 1249.61,9.331 1260.75,10.948 C1274.68,12.97 1288.56,15.294 1302.43,17.627 C1332.98,22.763 1363.18,29.528 1393.1,37.521 C1539.8,76.715 1672.9,143.22 1792.34,236.97 C1961.12,369.458 2099.66,557.382 2169.94,789.069 C2181.93,828.593 2191.65,868.687 2199,909.35 C2202.61,929.357 2205.72,949.431 2208.37,969.589 C2211.32,991.932 2213.41,1014.35 2214.99,1036.81 C2217.11,1066.99 2217.34,1080.25 2217.34,1116.36 L2217.34,1116.36 Z" id="Fill-1" fill="#1A1918" mask="url(#mask-2)"></path>
            </g>
            <path d="M1077.94,1627.14 C1077.74,1627.1 1077.53,1627.05 1077.33,1627 C1077.77,1626.61 1077.99,1626.74 1077.99,1627.4 C1077.99,1627.43 1077.94,1627.14 1077.94,1627.14" id="Fill-4" fill="#1A1918"></path>
        </g>
    </g>
</svg>